<?xml version="1.0" encoding="utf-8"?>
<!-- Generator: Adobe Illustrator 22.0.1, SVG Export Plug-In . SVG Version: 6.00 Build 0)  -->
<svg version="1.1" id="Layer_2_1_" xmlns="http://www.w3.org/2000/svg" xmlns:xlink="http://www.w3.org/1999/xlink" x="0px" y="0px"
	 viewBox="0 0 198.4 72.8" style="enable-background:new 0 0 198.4 72.8;" xml:space="preserve">
<style type="text/css">
	.st0{fill:#FFFFFF;}
	.st1{fill:#D9366D;}
</style>
<g>
	<path class="st0" d="M36.6,30.7v23.5H32l-0.7-3.3c-2.7,2.2-5.6,3.3-8.6,3.3c-4.8,0-7.2-3.2-7.2-9.5V28.1h3.3c1.4,0,2.6,1.2,2.6,2.6
		v13.9c0,2.9,1.1,4.3,3.4,4.3c1.9,0,3.9-0.9,5.9-2.6V28.1H34C35.5,28.1,36.6,29.2,36.6,30.7z"/>
	<path class="st0" d="M61.7,52.2c0,7.6-4.1,11.4-12.4,11.4c-2.9,0-5.5-0.4-7.7-1.2v-5.2c2.3,0.8,4.9,1.2,7.7,1.2c4.3,0,6.4-2,6.4-6
		c-1.8,0.8-3.7,1.2-5.7,1.2c-7,0-10.5-4.2-10.5-12.7c0-8.6,4.1-12.9,12.2-12.9c2.2,0,4.8,0.2,7.7,0.7c1.3,0.2,2.2,1.3,2.2,2.6
		L61.7,52.2z M55.7,34c-1-0.4-2.3-0.6-4.1-0.6c-4.1,0-6.2,2.5-6.2,7.5c0,4.9,1.8,7.3,5.3,7.3c1.7,0,3.4-0.4,5-1.3V34z"/>
	<path class="st0" d="M86.7,52.2c0,7.6-4.1,11.4-12.4,11.4c-2.9,0-5.5-0.4-7.7-1.2v-5.2c2.3,0.8,4.9,1.2,7.7,1.2c4.3,0,6.4-2,6.4-6
		c-1.8,0.8-3.7,1.2-5.7,1.2c-7,0-10.5-4.2-10.5-12.7c0-8.6,4.1-12.9,12.2-12.9c2.2,0,4.8,0.2,7.7,0.7c1.3,0.2,2.2,1.3,2.2,2.6
		L86.7,52.2z M80.8,34c-1-0.4-2.3-0.6-4.1-0.6c-4.1,0-6.2,2.5-6.2,7.5c0,4.9,1.8,7.3,5.3,7.3c1.7,0,3.4-0.4,5-1.3
		C80.8,46.9,80.8,34,80.8,34z"/>
	<path class="st0" d="M96.6,21.2v33h-5.9V18.6H94C95.4,18.6,96.6,19.8,96.6,21.2z"/>
	<path class="st0" d="M99.5,46c0-5.2,3.4-7.8,10.2-7.8c1.6,0,3.2,0.2,4.8,0.5v-2c0-2.3-1.5-3.5-4.5-3.5c-2.6,0-5.4,0.4-8.5,1.2v-5.2
		c3.1-0.8,6-1.2,8.5-1.2c7,0,10.5,2.9,10.5,8.6v17.5h-4.2l-1.4-2.3c-2,1.6-4.3,2.3-6.8,2.3C102.3,54.2,99.5,51.5,99.5,46z
		 M109.7,42.7c-2.8,0-4.3,1.1-4.3,3.2c0,2.3,1.2,3.5,3.6,3.5c2,0,3.8-0.7,5.5-2v-4.2C112.9,42.9,111.4,42.7,109.7,42.7z"/>
</g>
<g>
	<path class="st1" d="M193.5,13.4c0.1-1.1-1.8-2.3-4.1-3c-2.5-0.8-6.1-1.1-8.7-1c-3,0.1-5.5,0.5-9.2,2.1c-3.3-2.2-7.2-3.6-10.7-4.1
		c-4.6-0.7-10.1-0.6-15.6,0.5c-6.4,1.3-12.5,4-12.4,5.4c0,1.1,2.6,2.2,4.3,2.8c1.6,0.7,3.2,1.1,4.9,1.3c-1.1,2.8-1.6,5.7-1.6,7.8
		c0,1.5,0.2,3.1,0.7,4.6c1.1,3.7,3.7,7.2,5.7,9.3c0.5,0.5,0.5,1.1,0,1.6c-0.2,0.2-0.6,0.3-0.8,0.3s-0.6-0.1-0.8-0.3
		c-2-2-3.8-4.7-5.2-7.4c-1.6,1.4-2.9,5.2-3.1,8.6c-0.3,5.1,0.7,10.1,1.8,14c1.1,3.8,3.6,8.7,6.8,12.2c6.3,0,14.6-0.2,19.4-1
		c5.2-0.9,10.9-2.8,14.5-4.8c2.6-1.6,7.1-5.2,9.2-9.9c1.7-3.9,2.4-9.1,1.6-13.6c-0.2-1.5-0.8-3.2-1.4-4.7c-1.6,2.5-3.8,4.9-5.9,6.3
		c-0.2,0.1-0.5,0.2-0.7,0.2c-0.3,0-0.7-0.2-0.9-0.5c-0.3-0.6-0.2-1.3,0.3-1.6c2.2-1.5,4.4-4.1,5.9-6.9l0,0c1.1-1.8,1.8-5.3,2-7.4
		c0.1-2-0.6-5.3-1.4-7.4C190.5,16.1,193.4,14.4,193.5,13.4z M167.3,26.6c0.7,1,1.5,2,2.3,2.6c0.5-0.7,0.8-1.5,1-2.6
		c0.5,0.6,1,1.4,1.3,2.2c0,0.8-0.1,2.1-0.6,3.8c-0.5,1.6-0.9,3-1.3,3c-0.3,0.1-1.3-1.1-2-2.4c-0.8-1.4-1.4-3-1.5-3.8
		C166.5,28,166.8,27.3,167.3,26.6z M156.8,15.2c4.6,0,8.3,3.7,8.3,8.3s-3.7,8.3-8.3,8.3s-8.3-3.7-8.3-8.3S152.2,15.2,156.8,15.2z
		 M179.7,53.1c0,1.8-1.4,3.2-3.2,3.2h-4.7c-2,2-4.6,3.2-7.6,3.2s-5.6-1.3-7.6-3.2h-5.2c-1.8,0-3.4-1.4-3.4-3.2V42.3
		c0-1.8,1.6-3.4,3.4-3.4h7.4l0.6-1.4c0.2-0.7,0.9-0.9,1.7-0.9h6c0.8,0,1.5,0.3,1.7,0.9l0.6,1.4h7.4c1.8,0,3.2,1.6,3.2,3.4v10.8
		H179.7z M179.1,30.2c-3.9,0-7.1-3.2-7.1-7.1s3.2-7.1,7.1-7.1c3.9,0,7.1,3.2,7.1,7.1S183,30.2,179.1,30.2z"/>
	<path class="st1" d="M156.8,17.2c-3.4,0-6.3,2.8-6.3,6.3s2.8,6.3,6.3,6.3c3.4,0,6.3-2.8,6.3-6.3S160.3,17.2,156.8,17.2z
		 M156.8,27.3c-2.1,0-3.8-1.7-3.8-3.8s1.7-3.8,3.8-3.8c0.8,0,1.6,0.2,2.2,0.7c-0.1,0-0.2,0-0.3,0c-1.3,0-2.3,1-2.3,2.3
		s1,2.3,2.3,2.3c0.9,0,1.6-0.5,2.1-1.1C160.5,25.7,158.8,27.3,156.8,27.3z"/>
	<path class="st1" d="M179.1,18c-2.8,0-5.1,2.3-5.1,5.1s2.3,5.1,5.1,5.1s5.1-2.3,5.1-5.1S182,18,179.1,18z M179.1,26
		c-1.6,0-3-1.4-3-3s1.4-3,3-3c0.6,0,1.1,0.1,1.6,0.5h-0.1c-1,0-1.8,0.8-1.8,1.8s0.8,1.8,1.8,1.8c0.6,0,1.1-0.3,1.5-0.8
		C181.9,25,180.7,26,179.1,26z"/>
	<path class="st1" d="M164.2,42.2c3.7,0,6.6,3,6.6,6.6c0,3.7-3,6.6-6.6,6.6c-3.7,0-6.6-3-6.6-6.6C157.5,45.2,160.5,42.2,164.2,42.2
		 M164.2,40c-4.8,0-8.8,3.9-8.8,8.8s3.9,8.8,8.8,8.8c4.9,0,8.8-3.9,8.8-8.8S169,40,164.2,40L164.2,40z"/>
	<g>
		<path class="st1" d="M166,50.4c-1.4,0-2.5-1.1-2.5-2.5s1.1-2.5,2.5-2.5c0.3,0,0.8,0.1,1,0.2c-0.8-0.8-1.8-1.3-3-1.3
			c-2.4,0-4.4,2-4.4,4.4s2,4.4,4.4,4.4s4.4-2,4.4-4.4c0-0.1,0-0.2,0-0.3C168.2,49.6,167.3,50.4,166,50.4z"/>
	</g>
</g>
</svg>
